
<svg xmlns="http://www.w3.org/2000/svg" version="1.1" xmlns:xlink="http://www.w3.org/1999/xlink" preserveAspectRatio="none" x="0px" y="0px" width="221px" height="333px" viewBox="0 0 221 333">
<defs>
<g id="Layer0_0_FILL">
<path fill="#76CAFF" stroke="none" d="
M 103.05 12.3
Q 103.05 4.25 95.15 4.25
L 61.55 4.25
Q 53.65 4.25 53.65 12.3
L 53.65 46
Q 53.65 53.3 60.3 53.8 54.25 54.4 53.75 60.35 53 53.8 45.85 53.8
L 12.25 53.8
Q 4.2 53.8 4.2 61.7
L 4.2 95.55
Q 4.2 101.85 9.3 103.1 4.2 104.35 4.2 110.75
L 4.2 144.45
Q 4.2 152.5 12.25 152.5
L 45.85 152.5
Q 53.75 152.5 53.75 144.45
L 53.75 110.75
Q 53.75 104.35 48.7 103.1 53.15 102 53.75 96.9 54.4 103.35 61.55 103.35
L 95.15 103.35
Q 103.05 103.35 103.05 95.55
L 103.05 61.7
Q 103.05 54.4 96.5 53.8 103.05 53.3 103.05 46
L 103.05 12.3
M 91.3 10.05
Q 97.35 10.05 97.35 16.25
L 97.35 41.95
Q 97.35 48 91.3 48
L 65.5 48
Q 59.3 48 59.3 41.95
L 59.3 16.25
Q 59.3 10.05 65.5 10.05
L 91.3 10.05
M 97.35 65.65
L 97.35 91.5
Q 97.35 97.65 91.3 97.65
L 65.5 97.65
Q 59.3 97.65 59.3 91.5
L 59.3 65.65
Q 59.3 59.75 65.5 59.75
L 91.3 59.75
Q 97.35 59.75 97.35 65.65
M 10.05 65.65
Q 10.05 59.75 16.1 59.75
L 41.9 59.75
Q 47.95 59.75 47.95 65.65
L 47.95 91.5
Q 47.95 97.65 41.9 97.65
L 16.1 97.65
Q 10.05 97.65 10.05 91.5
L 10.05 65.65
M 41.9 108.55
Q 47.95 108.55 47.95 114.6
L 47.95 140.65
Q 47.95 146.55 41.9 146.55
L 16.1 146.55
Q 10.05 146.55 10.05 140.65
L 10.05 114.6
Q 10.05 108.55 16.1 108.55
L 41.9 108.55
M 41.45 146.1
Q 47.45 146.1 47.45 140.1
L 47.45 115
Q 47.45 109.1 41.45 109.1
L 16.45 109.1
Q 10.45 109.1 10.45 115
L 10.45 140.1
Q 10.45 146.1 16.45 146.1
L 41.45 146.1
M 16.5 60.2
Q 10.5 60.2 10.5 66.1
L 10.5 91.2
Q 10.5 97.2 16.5 97.2
L 41.5 97.2
Q 47.5 97.2 47.5 91.2
L 47.5 66.1
Q 47.5 60.2 41.5 60.2
L 16.5 60.2
M 96.8 91.2
L 96.8 66.05
Q 96.8 60.2 90.8 60.2
L 65.8 60.2
Q 59.8 60.2 59.8 66.05
L 59.8 91.2
Q 59.8 97.2 65.8 97.2
L 90.8 97.2
Q 96.8 97.2 96.8 91.2
M 96.85 16.45
Q 96.85 10.55 90.85 10.55
L 65.85 10.55
Q 59.85 10.55 59.85 16.45
L 59.85 41.5
Q 59.85 47.55 65.85 47.55
L 90.85 47.55
Q 96.85 47.55 96.85 41.5
L 96.85 16.45 Z"/>
</g>
</defs>

<g transform="matrix( 2.1311492919921875, 0, 0, 2.1311492919921875, -3.65,-0.2) ">
<use xlink:href="#Layer0_0_FILL"/>
</g>
</svg>
